<?xml version="1.0" standalone="no"?>
<!DOCTYPE svg PUBLIC "-//W3C//DTD SVG 20010904//EN"
 "http://www.w3.org/TR/2001/REC-SVG-20010904/DTD/svg10.dtd">
<svg version="1.0" xmlns="http://www.w3.org/2000/svg"
 width="300.000000pt" height="300.000000pt" viewBox="0 0 300.000000 300.000000"
 preserveAspectRatio="xMidYMid meet">
<metadata>
Created by potrace 1.14, written by Peter Selinger 2001-2017
</metadata>
<g transform="translate(0.000000,300.000000) scale(0.100000,-0.100000)"
fill="#000000" stroke="none">
<path d="M0 1418 l0 -993 123 2 c67 0 129 1 138 2 15 1 17 26 17 233 l1 231
100 98 c55 54 102 95 104 91 6 -9 254 -592 267 -627 5 -14 13 -25 17 -26 38
-4 257 -3 264 2 9 5 -2 39 -42 126 -10 24 -19 45 -19 47 0 2 -10 25 -22 52
-12 27 -23 51 -23 54 -2 7 -21 54 -52 125 -47 110 -51 119 -93 220 -23 55 -58
136 -77 179 -19 44 -30 82 -25 85 5 3 53 56 107 116 138 154 144 160 149 155
4 -5 76 -171 288 -660 44 -102 88 -203 98 -225 10 -22 41 -94 69 -160 l51
-120 51 1 c27 1 54 5 58 10 4 5 27 56 51 114 24 58 51 123 61 145 23 53 249
595 258 618 5 14 18 -6 51 -80 23 -54 51 -116 61 -138 9 -22 77 -179 149 -350
73 -170 133 -311 135 -313 3 -4 61 -5 98 -3 9 1 17 5 17 10 0 5 10 30 22 57
12 27 23 51 23 54 3 10 27 66 45 105 11 22 42 94 70 160 29 66 60 138 70 160
10 22 48 110 85 195 37 85 78 179 91 208 13 29 24 55 24 57 0 2 13 33 29 67
31 69 111 255 111 260 0 5 -280 1 -284 -3 -2 -2 -36 -80 -76 -174 -40 -93 -80
-188 -90 -210 -10 -22 -33 -74 -50 -115 -18 -41 -43 -99 -56 -128 -13 -29 -24
-55 -24 -57 0 -2 -12 -30 -26 -61 -19 -42 -28 -53 -35 -43 -5 8 -9 22 -9 32 0
9 -4 17 -10 17 -5 0 -10 6 -10 13 0 8 -15 49 -34 93 -18 43 -57 135 -86 204
-29 69 -58 139 -65 155 -7 17 -34 82 -60 145 -26 63 -51 119 -55 123 -11 12
-188 13 -198 1 -5 -5 -15 -25 -22 -44 -7 -19 -24 -60 -38 -90 -29 -66 -45
-103 -46 -110 -2 -6 -62 -150 -88 -210 -29 -65 -32 -73 -92 -214 l-54 -130
-31 69 c-17 37 -31 69 -31 71 0 1 -14 33 -31 71 -44 99 -40 89 -149 343 -56
129 -106 239 -110 244 -5 5 -90 9 -189 9 l-180 0 -240 -239 c-133 -131 -244
-237 -247 -234 -4 3 -6 256 -6 563 l1 557 -139 0 -140 0 0 -992z"/>
</g>
</svg>
